<svg id="Layer_1" data-name="Layer 1" xmlns="http://www.w3.org/2000/svg" viewBox="0 0 64 64"><defs><style>.cls-1{fill:#dfe8f4;}.cls-2{fill:#ccd8e5;}.cls-3{fill:#0795ff;}.cls-4{fill:#156cdd;}</style></defs><title>medical, medicine, healthcare, health, broken, bone</title><path class="cls-1" d="M41,32.53,31.47,23A8.46,8.46,0,0,1,29,15.75a6.68,6.68,0,0,0-2.08-6,6.78,6.78,0,0,0-9.18.1,6.69,6.69,0,0,0-2,4.74,1.09,1.09,0,0,1-1.08,1.08,6.67,6.67,0,0,0-4.74,2,6.77,6.77,0,0,0-.1,9.18,6.68,6.68,0,0,0,6,2.08A8.46,8.46,0,0,1,23,31.47L32.53,41A8.46,8.46,0,0,1,35,48.25a6.68,6.68,0,0,0,2.08,6,6.77,6.77,0,0,0,9.18-.1,6.67,6.67,0,0,0,2.05-4.74,1.09,1.09,0,0,1,1.08-1.08,6.67,6.67,0,0,0,4.74-2.05,6.77,6.77,0,0,0,.1-9.18,6.68,6.68,0,0,0-6-2.08A8.46,8.46,0,0,1,41,32.53Z"/><path class="cls-2" d="M14.57,15.65a6.67,6.67,0,0,0-4.74,2,6.52,6.52,0,0,0-1.09,1.59h2.18a4.72,4.72,0,0,0,4.73-4.72h0A1.09,1.09,0,0,1,14.57,15.65Z"/><path class="cls-2" d="M49.45,48.35a6.63,6.63,0,0,0,4.73-2.05,6.52,6.52,0,0,0,1.09-1.59H53.09a4.73,4.73,0,0,0-4.73,4.73h0A1.09,1.09,0,0,1,49.45,48.35Z"/><path class="cls-3" d="M28.37,36.85l9-2.1a.43.43,0,0,0,.2-.71L35.44,32a.43.43,0,0,1,.2-.71L39,30.48l-3.33-3.33-9,2.1a.43.43,0,0,0-.2.71L28.56,32a.43.43,0,0,1-.2.71L25,33.52Z"/><polygon class="cls-3" points="36.6 33.13 37.52 34.04 36.6 33.13 36.6 33.13"/><path class="cls-4" d="M26.21,34.68l3.32-.78a.42.42,0,0,0,.2-.7L28.56,32a.43.43,0,0,1-.2.71L25,33.52l3.33,3.33h0Z"/><path class="cls-4" d="M27.65,31.12a.42.42,0,0,1,.2-.7l8.95-2.1-1.17-1.17-9,2.1a.43.43,0,0,0-.2.71Z"/></svg>