<svg id="Layer_1" data-name="Layer 1" xmlns="http://www.w3.org/2000/svg" viewBox="0 0 64 64"><defs><style>.cls-1{fill:#dfe8f4;}.cls-2{fill:#ccd8e5;}.cls-3{fill:#0795ff;}.cls-4{fill:#156cdd;}</style></defs><title>medical, medicine, healthcare, health, dental</title><path class="cls-1" d="M8.18,24a13.52,13.52,0,0,1,22.07-8.31,2.7,2.7,0,0,0,3.5,0A13.51,13.51,0,0,1,52.53,35a19.87,19.87,0,0,0-2.16,2.84L43.22,49.44a4.33,4.33,0,0,1-3.7,2.07h0A4.35,4.35,0,0,1,35.17,47l.13-3.83A3.27,3.27,0,0,0,32,39.82h0a3.27,3.27,0,0,0-3.26,3.37L28.89,47a4.35,4.35,0,0,1-4.34,4.49h0a4.35,4.35,0,0,1-3.71-2.07c-1.84-3-5.24-8.52-7-11.39a21,21,0,0,0-2.32-3A13.47,13.47,0,0,1,8.18,24Z"/><path class="cls-2" d="M41.62,19.36l-1.56.73a4,4,0,0,1-4-.35l-5.21-3.69a2.69,2.69,0,0,0,2.88-.39,13.24,13.24,0,0,1,3.08-1.94,5.3,5.3,0,0,1,5.24.54h0A3,3,0,0,1,41.62,19.36Z"/><circle class="cls-3" cx="25" cy="28.25" r="5"/><path class="cls-4" d="M23.8,23.39a5.1,5.1,0,0,0-3.72,3.92h0a3.84,3.84,0,0,0,4.57,4.56h0a5.09,5.09,0,0,0,3.92-3.71s0-.05,0-.08a3.9,3.9,0,0,0-4.71-4.71Z"/><path class="cls-3" d="M38.32,26.66a2,2,0,1,1-2-2A2,2,0,0,1,38.32,26.66Z"/><path class="cls-4" d="M35.89,24.76a2,2,0,0,0-1.46,1.53h0a1.51,1.51,0,0,0,1.79,1.79h0a2,2,0,0,0,1.54-1.45v0a1.53,1.53,0,0,0-1.84-1.85Z"/><circle class="cls-3" cx="35.6" cy="33.99" r="1.46"/><path class="cls-4" d="M35.25,32.58a1.48,1.48,0,0,0-1.08,1.14h0a1.12,1.12,0,0,0,1.33,1.33h0A1.48,1.48,0,0,0,36.64,34v0a1.13,1.13,0,0,0-1.37-1.37Z"/><path class="cls-3" d="M45.53,30.33a2.21,2.21,0,1,1-2.21-2.21A2.21,2.21,0,0,1,45.53,30.33Z"/><path class="cls-4" d="M42.79,28.18a2.25,2.25,0,0,0-1.64,1.73h0a1.69,1.69,0,0,0,2,2h0a2.23,2.23,0,0,0,1.73-1.64v0a1.73,1.73,0,0,0-2.09-2.09Z"/></svg>