<?xml version="1.0" encoding="utf-8"?>
<svg version="1.1" id="Icon_Set" xmlns="http://www.w3.org/2000/svg" xmlns:xlink="http://www.w3.org/1999/xlink" x="0px" y="0px"
	 viewBox="0 0 512 512" style="enable-background:new 0 0 512 512;" xml:space="preserve">
<style type="text/css">
	.st0{fill:#F0C48A;}
	.st1{fill:#FD919E;}
	.st2{fill:#4C4372;}
	.st3{fill:#D3E6F8;}
	.st4{fill:#A4CFF2;}
	.st5{fill:#7BABF1;}
	.st6{fill:#FFFFFF;}
	.st7{fill:#E8677D;}
	.st8{fill:none;stroke:#4C4372;stroke-width:12;stroke-linecap:round;stroke-linejoin:round;stroke-miterlimit:10;}
</style>
<g id="Depression">
	<g>
		<g>
			<circle class="st0" cx="256" cy="256" r="207"/>
		</g>
	</g>
	<g>
		<g>
			<path class="st3" d="M153.34,192.969v18.777l-32.136,47.841c-3.876,5.77,0.259,13.528,7.21,13.528h24.927v33.032
				c0,26.791,21.719,48.51,48.51,48.51h42.268v73.847h90.737v-93.847h0.041h0h0c20.65,0,37.39-16.74,37.39-37.39V192.969
				c0-60.46-49.013-109.473-109.473-109.473h0C202.353,83.496,153.34,132.508,153.34,192.969z"/>
		</g>
		<g>
			<path class="st6" d="M308.48,194.18c16.385,0,29.668-13.282,29.668-29.667s-13.283-29.668-29.668-29.668
				c-0.218,0-0.433,0.012-0.65,0.016c-5.682-19.02-23.303-32.889-44.172-32.889s-38.489,13.869-44.172,32.889
				c-0.217-0.004-0.432-0.016-0.65-0.016c-16.385,0-29.667,13.283-29.667,29.668s13.283,29.667,29.667,29.667H308.48z"/>
		</g>
		<g>
			<path class="st2" d="M308.48,200.18h-89.643c-19.667,0-35.667-16-35.667-35.667c0-18.426,14.043-33.633,31.989-35.479
				c7.749-19.667,27.105-33.062,48.5-33.062c21.394,0,40.75,13.396,48.5,33.061c17.946,1.846,31.99,17.054,31.99,35.479
				C344.148,184.179,328.147,200.18,308.48,200.18z M218.837,140.845c-13.05,0-23.667,10.617-23.667,23.667
				s10.617,23.667,23.667,23.667h89.643c13.05,0,23.667-10.617,23.667-23.667s-10.617-23.667-23.667-23.667l-0.515,0.015
				c-2.722,0.048-5.111-1.692-5.884-4.281c-5.032-16.843-20.832-28.607-38.423-28.607c-17.591,0-33.391,11.764-38.423,28.607
				c-0.774,2.589-3.174,4.333-5.884,4.281L218.837,140.845z"/>
		</g>
		<g>
			<polygon class="st1" points="246.335,136.42 283.546,136.42 270.112,169.97 295.496,169.97 236.259,225.946 249.694,169.97 
				229.542,169.97 			"/>
		</g>
		<g>
			<path class="st2" d="M236.258,231.946c-1.03,0-2.067-0.265-3.004-0.807c-2.298-1.33-3.449-4.012-2.829-6.593l11.659-48.576
				h-12.541c-2.08,0-4.012-1.077-5.104-2.847c-1.093-1.77-1.192-3.979-0.261-5.839l16.793-33.55
				c1.017-2.031,3.094-3.314,5.365-3.314h37.21c1.991,0,3.853,0.988,4.969,2.637c1.116,1.649,1.341,3.745,0.601,5.593
				l-10.138,25.319h16.519c2.458,0,4.667,1.499,5.575,3.783s0.332,4.89-1.454,6.578l-59.237,55.977
				C239.237,231.387,237.754,231.946,236.258,231.946z M239.255,163.97h10.438c1.838,0,3.574,0.842,4.712,2.285
				c1.138,1.443,1.551,3.328,1.123,5.115l-8.727,36.359l33.609-31.759h-10.299c-1.991,0-3.853-0.988-4.969-2.637
				c-1.116-1.649-1.341-3.745-0.601-5.593l10.138-25.319h-24.638L239.255,163.97z"/>
		</g>
		<g>
			<g>
				<path class="st2" d="M198.604,231.627c-0.864,0-1.742-0.188-2.575-0.584c-2.992-1.425-4.262-5.005-2.838-7.997l5.791-12.161
					c1.424-2.992,5.003-4.263,7.997-2.838c2.992,1.425,4.262,5.005,2.838,7.997l-5.791,12.161
					C202.998,230.364,200.846,231.627,198.604,231.627z"/>
			</g>
			<g>
				<path class="st2" d="M198.604,264.099c-0.864,0-1.742-0.188-2.575-0.584c-2.992-1.425-4.262-5.005-2.838-7.997l5.791-12.161
					c1.424-2.992,5.003-4.263,7.997-2.838c2.992,1.425,4.262,5.005,2.838,7.997l-5.791,12.161
					C202.998,262.836,200.846,264.099,198.604,264.099z"/>
			</g>
			<g>
				<path class="st2" d="M312.494,231.627c-0.864,0-1.743-0.188-2.575-0.584c-2.992-1.424-4.262-5.005-2.837-7.997l5.791-12.161
					c1.424-2.992,5.004-4.263,7.997-2.837c2.992,1.424,4.262,5.005,2.837,7.997l-5.791,12.161
					C316.888,230.364,314.736,231.627,312.494,231.627z"/>
			</g>
			<g>
				<path class="st2" d="M312.494,264.099c-0.864,0-1.743-0.188-2.575-0.584c-2.992-1.424-4.262-5.005-2.837-7.997l5.791-12.161
					c1.424-2.992,5.004-4.263,7.997-2.837c2.992,1.424,4.262,5.005,2.837,7.997l-5.791,12.161
					C316.888,262.836,314.736,264.099,312.494,264.099z"/>
			</g>
		</g>
		<g>
			<path class="st2" d="M334.855,434.504h-90.737c-3.313,0-6-2.686-6-6v-67.847h-36.268c-30.057,0-54.51-24.453-54.51-54.51v-27.032
				h-18.927c-5.437,0-10.403-2.98-12.959-7.778c-2.557-4.798-2.263-10.582,0.769-15.095l31.118-46.324v-16.949
				c0-63.672,51.801-115.473,115.473-115.473s115.473,51.801,115.473,115.473v104.299c0,21.904-16.315,40.069-37.431,42.982v88.254
				C340.855,431.818,338.169,434.504,334.855,434.504z M250.119,422.504h78.737v-87.847c0-3.313,2.686-6,6-6
				c17.35,0,31.431-14.082,31.431-31.39V192.969c0-57.055-46.418-103.473-103.473-103.473S159.34,135.914,159.34,192.969v18.777
				c0,1.192-0.355,2.356-1.02,3.346l-32.137,47.841c-0.782,1.164-0.423,2.229-0.14,2.76c0.283,0.531,0.967,1.422,2.37,1.422h24.927
				c3.313,0,6,2.687,6,6v33.032c0,23.44,19.07,42.51,42.51,42.51h42.268c3.314,0,6,2.687,6,6V422.504z M153.34,211.746h0.01H153.34z
				"/>
		</g>
	</g>
</g>
</svg>
