<svg id="Layer_1" data-name="Layer 1" xmlns="http://www.w3.org/2000/svg" viewBox="0 0 64 64"><defs><style>.cls-1{fill:#ccd8e5;}.cls-2{fill:#156cdd;}.cls-3{fill:#fff;}.cls-4{fill:#dfe8f4;}.cls-5{fill:#0795ff;}</style></defs><title>medical, medicine, healthcare, health, dna</title><path class="cls-1" d="M19.32,8c0,5.5,5.28,10.17,12.68,12,7.4-1.83,12.68-6.5,12.68-12"/><path class="cls-2" d="M32.36,21.46l-.72-2.91C38.55,16.85,43.18,12.61,43.18,8h3C46.18,14.11,40.76,19.39,32.36,21.46Z"/><ellipse class="cls-3" cx="32" cy="32.01" rx="12.68" ry="12"/><ellipse class="cls-4" cx="32" cy="32.01" rx="12.68" ry="12"/><path class="cls-2" d="M31.64,45.46C23.24,43.39,17.82,38.11,17.82,32h3c0,4.6,4.63,8.83,11.54,10.54Z"/><path class="cls-2" d="M20.82,32h-3c0-6.11,5.42-11.39,13.82-13.46l.72,2.91C25.45,23.17,20.82,27.4,20.82,32Z"/><path class="cls-1" d="M44.68,56c0-5.5-5.28-10.17-12.68-12-7.4,1.83-12.68,6.5-12.68,12"/><path class="cls-2" d="M46.18,56h-3c0-4.6-4.63-8.84-11.54-10.54l.72-2.91C40.76,44.62,46.18,49.9,46.18,56Z"/><path class="cls-5" d="M31.64,21.46C23.24,19.39,17.82,14.11,17.82,8h3c0,4.6,4.63,8.84,11.54,10.54Z"/><path class="cls-5" d="M32.36,45.46l-.72-2.91C38.55,40.84,43.18,36.61,43.18,32s-4.63-8.84-11.54-10.55l.72-2.91C40.76,20.62,46.18,25.9,46.18,32S40.76,43.39,32.36,45.46Z"/><path class="cls-5" d="M20.82,56h-3c0-6.1,5.42-11.38,13.82-13.45l.72,2.91C25.45,47.16,20.82,51.4,20.82,56Z"/><path class="cls-5" d="M43.8,10.52H20.2a.51.51,0,0,1-.5-.5.5.5,0,0,1,.5-.5H43.8a.5.5,0,0,1,.5.5A.51.51,0,0,1,43.8,10.52Z"/><path class="cls-5" d="M42.27,13.55H21.73a.5.5,0,0,1-.5-.5.51.51,0,0,1,.5-.5H42.27a.51.51,0,0,1,.5.5A.5.5,0,0,1,42.27,13.55Z"/><path class="cls-5" d="M39.83,16.59H24.17a.5.5,0,0,1,0-1H39.83a.5.5,0,0,1,0,1Z"/><path class="cls-5" d="M43.8,54.5H20.2a.51.51,0,0,1-.5-.5.5.5,0,0,1,.5-.5H43.8a.5.5,0,0,1,.5.5A.51.51,0,0,1,43.8,54.5Z"/><path class="cls-5" d="M42.27,51.46H21.73a.51.51,0,0,1-.5-.5.5.5,0,0,1,.5-.5H42.27a.5.5,0,0,1,.5.5A.51.51,0,0,1,42.27,51.46Z"/><path class="cls-5" d="M39.83,48.42H24.17a.5.5,0,0,1,0-1H39.83a.5.5,0,0,1,0,1Z"/><path class="cls-5" d="M43.8,30.88H20.2a.51.51,0,0,1-.5-.5.5.5,0,0,1,.5-.5H43.8a.5.5,0,0,1,.5.5A.51.51,0,0,1,43.8,30.88Z"/><path class="cls-5" d="M42.27,27.84H21.73a.51.51,0,0,1-.5-.5.5.5,0,0,1,.5-.5H42.27a.5.5,0,0,1,.5.5A.51.51,0,0,1,42.27,27.84Z"/><path class="cls-5" d="M39.83,24.8H24.17a.5.5,0,0,1,0-1H39.83a.5.5,0,0,1,0,1Z"/><path class="cls-5" d="M43.8,34.14H20.2a.51.51,0,0,1-.5-.5.5.5,0,0,1,.5-.5H43.8a.5.5,0,0,1,.5.5A.51.51,0,0,1,43.8,34.14Z"/><path class="cls-5" d="M42.27,37.17H21.73a.5.5,0,0,1-.5-.5.51.51,0,0,1,.5-.5H42.27a.51.51,0,0,1,.5.5A.5.5,0,0,1,42.27,37.17Z"/><path class="cls-5" d="M39.83,40.21H24.17a.5.5,0,0,1,0-1H39.83a.5.5,0,0,1,0,1Z"/></svg>