<svg id="Layer_1" data-name="Layer 1" xmlns="http://www.w3.org/2000/svg" viewBox="0 0 64 64"><defs><style>.cls-1{fill:#ccd8e5;}.cls-2{fill:#dfe8f4;}.cls-3{fill:#0795ff;}</style></defs><title>medical, medicine, healthcare, health, ear</title><path class="cls-1" d="M31,8a17.33,17.33,0,0,0-10.8,30,15.59,15.59,0,0,1,4.88,8.18c.05.23.1.46.16.69a12.24,12.24,0,0,0,24.06-3.18V25.34A17.34,17.34,0,0,0,31,8Z"/><path class="cls-2" d="M49.34,43.76V25.34a17.34,17.34,0,1,0-29.1,12.73,15.59,15.59,0,0,1,4.88,8.18c.05.23.1.46.16.69a12.24,12.24,0,0,0,24.06-3.18Z"/><path class="cls-1" d="M41.68,43A4.9,4.9,0,0,1,36,47.85a4.85,4.85,0,0,1-3.91-3.51c0-.1,0-.21-.07-.31a21,21,0,0,0-6.55-11.16,9.67,9.67,0,0,1-3.06-8.08,9.82,9.82,0,0,1,9.09-8.69,9.68,9.68,0,0,1,10.22,9.66Z"/><path class="cls-3" d="M36.33,48a6.94,6.94,0,0,1-1-.08,5.93,5.93,0,0,1-4.77-4.29c0-.13-.06-.25-.08-.36l2.94-.61,0,.22a2.89,2.89,0,0,0,2.32,2.07A2.94,2.94,0,0,0,39.27,42V26.33a7.29,7.29,0,0,0-7.7-7.27,7.39,7.39,0,0,0-6.85,6.54l-3-.29a10.45,10.45,0,0,1,9.66-9.25A10.28,10.28,0,0,1,42.27,26.33V42a6,6,0,0,1-5.94,6Z"/><path class="cls-3" d="M42.27,38.8h-3V33.62a2.89,2.89,0,0,0-5.77,0v.22h-3v-.22a5.89,5.89,0,0,1,11.77,0Z"/></svg>