<svg id="Layer_1" data-name="Layer 1" xmlns="http://www.w3.org/2000/svg" viewBox="0 0 64 64"><defs><style>.cls-1{fill:#dfe8f4;}.cls-2{fill:#0795ff;}.cls-3{fill:#156cdd;}.cls-4{fill:#fff;}</style></defs><title>medical, medicine, healthcare, health, add, visibility</title><path class="cls-1" d="M55.57,21.41,55,21.12a13,13,0,0,1-4.15-3.67,23.59,23.59,0,0,0-37.76,0A13,13,0,0,1,9,21.12l-.54.29a.82.82,0,0,0,0,1.44l.54.29a12.92,12.92,0,0,1,4.15,3.67,23.59,23.59,0,0,0,37.76,0A12.92,12.92,0,0,1,55,23.14l.54-.29A.82.82,0,0,0,55.57,21.41Z"/><circle class="cls-2" cx="32" cy="22.13" r="7.75"/><circle class="cls-2" cx="32" cy="44.88" r="11.13"/><path class="cls-3" d="M26.05,35.49a23.37,23.37,0,0,0,11.9,0,11,11,0,0,0-11.9,0Z"/><rect class="cls-4" x="30.55" y="39.42" width="2.91" height="10.92"/><rect class="cls-4" x="30.55" y="39.42" width="2.91" height="10.92" transform="translate(76.87 12.88) rotate(90)"/></svg>