<svg id="Layer_1" data-name="Layer 1" xmlns="http://www.w3.org/2000/svg" viewBox="0 0 64 64"><defs><style>.cls-1{fill:#0795ff;}.cls-2{fill:#ccd8e5;}.cls-3{fill:#fff;}</style></defs><title>medical, medicine, healthcare, health, folder, file</title><path class="cls-1" d="M8,25H54.48A1.52,1.52,0,0,1,56,26.52v28A1.52,1.52,0,0,1,54.48,56h-45A1.52,1.52,0,0,1,8,54.48V25A0,0,0,0,1,8,25Z"/><path class="cls-2" d="M9.2,21.25H24.42a1.2,1.2,0,0,1,1.2,1.2V25a0,0,0,0,1,0,0H8a0,0,0,0,1,0,0V22.45A1.2,1.2,0,0,1,9.2,21.25Z"/><rect class="cls-3" x="29.15" y="34.29" width="5.7" height="12.42" rx="0.43"/><rect class="cls-3" x="29.15" y="34.29" width="5.7" height="12.42" rx="0.43" transform="translate(72.5 8.5) rotate(90)"/></svg>