<svg id="Layer_1" data-name="Layer 1" xmlns="http://www.w3.org/2000/svg" viewBox="0 0 64 64"><defs><style>.cls-1{fill:#dfe8f4;}.cls-2{fill:#0795ff;}.cls-3{fill:#ccd8e5;}.cls-4{fill:#156cdd;}</style></defs><title>medical, medicine, healthcare, health, bag, medication</title><path class="cls-1" d="M42.22,16.75H17.78a3.91,3.91,0,0,0-3.9,3.91V37.18A5.54,5.54,0,0,0,16.64,42l7.88,4.54A2.9,2.9,0,0,1,26,49v1.48a1.14,1.14,0,0,0,1.14,1.13h5.8A1.14,1.14,0,0,0,34,50.49V49a2.9,2.9,0,0,1,1.44-2.5L43.36,42a5.54,5.54,0,0,0,2.76-4.79V20.66A3.91,3.91,0,0,0,42.22,16.75Z"/><path class="cls-2" d="M42.12,35.43a4.56,4.56,0,0,1-2.27,4l-6.37,3.67a6.94,6.94,0,0,0-3.3,4.57h-.36a6.94,6.94,0,0,0-3.3-4.57l-6.37-3.67a4.56,4.56,0,0,1-2.27-4V22.54a1.79,1.79,0,0,1,1.78-1.79H40.34a1.79,1.79,0,0,1,1.78,1.79Z"/><path class="cls-3" d="M56,56H52V13.48A1.48,1.48,0,0,0,50.52,12H32v4.75H28V10a2,2,0,0,1,2-2H50.52A5.49,5.49,0,0,1,56,13.48Z"/><rect class="cls-3" x="28.17" y="51.63" width="3.67" height="4.21"/><rect class="cls-4" x="22.58" y="31.5" width="4" height="4" rx="0.95"/><rect class="cls-4" x="27.85" y="31.5" width="4.07" height="0.8"/><rect class="cls-4" x="27.85" y="33.1" width="4.07" height="0.8"/><rect class="cls-4" x="27.85" y="34.7" width="2.03" height="0.8"/><path class="cls-3" d="M40.34,20.75H19.66a1.79,1.79,0,0,0-1.78,1.79V27a.94.94,0,0,0,1.13.92,6.88,6.88,0,0,0,1.68-.61,2,2,0,0,1,1.86,0,7,7,0,0,0,3.26.8,7.09,7.09,0,0,0,3.25-.79,2,2,0,0,1,1.88,0,7.09,7.09,0,0,0,3.25.79,7,7,0,0,0,3.26-.8,2,2,0,0,1,1.86,0,6.88,6.88,0,0,0,1.68.61A.94.94,0,0,0,42.12,27V22.54A1.79,1.79,0,0,0,40.34,20.75Z"/></svg>