<svg id="Layer_1" data-name="Layer 1" xmlns="http://www.w3.org/2000/svg" viewBox="0 0 64 64"><defs><style>.cls-1{fill:#dfe8f4;}.cls-2{fill:#ccd8e5;}.cls-3{fill:#0795ff;}.cls-4{fill:#fff;}</style></defs><title>medical, medicine, healthcare, health, bag</title><rect class="cls-1" x="8" y="21.67" width="48" height="34.33" rx="3.73"/><path class="cls-2" d="M52.27,43.92H11.73A3.73,3.73,0,0,1,8,40.19V52.27A3.73,3.73,0,0,0,11.73,56H52.27A3.73,3.73,0,0,0,56,52.27V40.19A3.73,3.73,0,0,1,52.27,43.92Z"/><path class="cls-3" d="M42.5,21.67h-4V17.13h-13v4.54h-4V15.13a2,2,0,0,1,2-2h17a2,2,0,0,1,2,2Z"/><rect class="cls-3" x="14.29" y="40.19" width="4.17" height="6.73" rx="1.09"/><rect class="cls-3" x="45.54" y="40.19" width="4.17" height="6.73" rx="1.09"/><rect class="cls-4" x="29.15" y="26.7" width="5.7" height="12.42" rx="0.43"/><rect class="cls-4" x="29.15" y="26.7" width="5.7" height="12.42" rx="0.43" transform="translate(64.92 0.92) rotate(90)"/></svg>