<svg id="Layer_1" data-name="Layer 1" xmlns="http://www.w3.org/2000/svg" viewBox="0 0 64 64"><defs><style>.cls-1{fill:#156cdd;}.cls-2{fill:#0795ff;}</style></defs><title>medical, medicine, healthcare, health, support, ribbon</title><path class="cls-1" d="M23.88,55.67,18.31,50.1a1.12,1.12,0,0,1,0-1.57L26,40.85,33.14,48l-7.69,7.68A1.1,1.1,0,0,1,23.88,55.67Z"/><path class="cls-2" d="M28.43,45.55,20,37.08a17,17,0,1,1,24.08,0L36.9,29.94a6.93,6.93,0,1,0-9.8,0l8.47,8.47Z"/><path class="cls-2" d="M38.55,55.67,20,37.08l7.14-7.14L45.69,48.53a1.11,1.11,0,0,1,0,1.58l-5.57,5.56A1.1,1.1,0,0,1,38.55,55.67Z"/><rect class="cls-1" x="36.05" y="30.1" width="5.54" height="10.1" transform="translate(-13.48 37.75) rotate(-45)"/></svg>