<svg id="Layer_1" data-name="Layer 1" xmlns="http://www.w3.org/2000/svg" viewBox="0 0 64 64"><defs><style>.cls-1{fill:#dfe8f4;}.cls-2{fill:#ccd8e5;}.cls-3{fill:#0795ff;}.cls-4{fill:#fff;}</style></defs><title>medical, medicine, healthcare, health, test, tube</title><rect class="cls-1" x="20.92" y="8" width="22.17" height="5.83" rx="1.92"/><path class="cls-1" d="M32,56h0a8.42,8.42,0,0,1-8.42-8.42V13.83H40.42V47.58A8.42,8.42,0,0,1,32,56Z"/><rect class="cls-2" x="23.58" y="13.83" width="16.83" height="1.58"/><path class="cls-3" d="M38,31.61a3.88,3.88,0,0,1-3.39,0,1.13,1.13,0,0,0-1,0,3.86,3.86,0,0,1-3.38,0,1.13,1.13,0,0,0-.95,0,3.88,3.88,0,0,1-3.39,0,1.1,1.1,0,0,0-.94,0,3.9,3.9,0,0,1-1.45.38V47.3A8.61,8.61,0,0,0,31.44,56a8.42,8.42,0,0,0,9-8.4V32A3.9,3.9,0,0,1,39,31.61,1.1,1.1,0,0,0,38,31.61Z"/><rect class="cls-4" x="25.75" y="16.9" width="2.63" height="0.81"/><rect class="cls-4" x="25.75" y="19.05" width="1.31" height="0.81"/><rect class="cls-4" x="25.75" y="21.44" width="2.63" height="0.81"/><rect class="cls-4" x="25.75" y="23.59" width="1.31" height="0.81"/><rect class="cls-4" x="25.75" y="25.98" width="2.63" height="0.81"/><rect class="cls-4" x="25.75" y="28.13" width="1.31" height="0.81"/><rect class="cls-4" x="25.75" y="30.52" width="2.63" height="0.81"/><rect class="cls-4" x="25.75" y="32.67" width="1.31" height="0.81"/><rect class="cls-4" x="25.75" y="35.05" width="2.63" height="0.81"/><rect class="cls-4" x="25.75" y="37.21" width="1.31" height="0.81"/><rect class="cls-4" x="25.75" y="39.59" width="2.63" height="0.81"/><rect class="cls-4" x="25.75" y="41.75" width="1.31" height="0.81"/><rect class="cls-4" x="25.75" y="44.13" width="2.63" height="0.81"/><rect class="cls-4" x="25.75" y="46.29" width="1.31" height="0.81"/></svg>