<svg id="Layer_1" data-name="Layer 1" xmlns="http://www.w3.org/2000/svg" viewBox="0 0 64 64"><defs><style>.cls-1{fill:#ccd8e5;}.cls-2{fill:#dfe8f4;}.cls-3{fill:#0795ff;}.cls-4{fill:#fff;}</style></defs><title>medical, medicine, healthcare, health, test, tubes</title><path class="cls-1" d="M54.58,32H9.42A1.43,1.43,0,0,1,8,30.58H8a1.43,1.43,0,0,1,1.42-1.43H54.58A1.43,1.43,0,0,1,56,30.58h0A1.43,1.43,0,0,1,54.58,32Z"/><path class="cls-2" d="M14.67,14.33H28.17a1.41,1.41,0,0,1,1.41,1.41v1.47a1.42,1.42,0,0,1-1.42,1.42H14.67a1.42,1.42,0,0,1-1.42-1.42V15.74A1.42,1.42,0,0,1,14.67,14.33Z"/><path class="cls-2" d="M21.42,49.67h0a6.2,6.2,0,0,1-6.2-6.19V18.62h12.4V43.48A6.2,6.2,0,0,1,21.42,49.67Z"/><rect class="cls-1" x="15.22" y="18.62" width="12.4" height="1.17"/><path class="cls-3" d="M25.86,31.71a2.86,2.86,0,0,1-2.49,0,.85.85,0,0,0-.7,0,2.88,2.88,0,0,1-2.5,0,.83.83,0,0,0-.69,0,2.88,2.88,0,0,1-2.5,0,.83.83,0,0,0-.69,0,2.7,2.7,0,0,1-1.07.28V43.26A6.34,6.34,0,0,0,21,49.66a6.2,6.2,0,0,0,6.61-6.18V32a2.7,2.7,0,0,1-1.07-.28A.83.83,0,0,0,25.86,31.71Z"/><rect class="cls-4" x="16.82" y="20.88" width="1.93" height="0.6"/><rect class="cls-4" x="16.82" y="22.47" width="0.97" height="0.6"/><rect class="cls-4" x="16.82" y="24.22" width="1.93" height="0.6"/><rect class="cls-4" x="16.82" y="25.81" width="0.97" height="0.6"/><rect class="cls-4" x="16.82" y="27.56" width="1.93" height="0.6"/><rect class="cls-4" x="16.82" y="29.15" width="0.97" height="0.6"/><rect class="cls-4" x="16.82" y="30.91" width="1.93" height="0.6"/><rect class="cls-4" x="16.82" y="32.49" width="0.97" height="0.6"/><rect class="cls-4" x="16.82" y="34.25" width="1.93" height="0.6"/><rect class="cls-4" x="16.82" y="35.84" width="0.97" height="0.6"/><rect class="cls-4" x="16.82" y="37.59" width="1.93" height="0.6"/><rect class="cls-4" x="16.82" y="39.18" width="0.97" height="0.6"/><rect class="cls-4" x="16.82" y="40.93" width="1.93" height="0.6"/><rect class="cls-4" x="16.82" y="42.52" width="0.97" height="0.6"/><path class="cls-2" d="M35.83,14.33H49.33a1.42,1.42,0,0,1,1.42,1.42v1.47a1.42,1.42,0,0,1-1.42,1.42H35.83a1.41,1.41,0,0,1-1.41-1.41V15.74a1.41,1.41,0,0,1,1.41-1.41Z"/><path class="cls-2" d="M42.58,49.67h0a6.2,6.2,0,0,1-6.2-6.19V18.62h12.4V43.48A6.2,6.2,0,0,1,42.58,49.67Z"/><rect class="cls-1" x="36.38" y="18.62" width="12.4" height="1.17"/><path class="cls-3" d="M47,23.56a2.88,2.88,0,0,1-2.5,0,.76.76,0,0,0-.69,0,2.88,2.88,0,0,1-2.5,0,.78.78,0,0,0-.7,0,2.86,2.86,0,0,1-2.49,0,.76.76,0,0,0-.69,0,2.86,2.86,0,0,1-1.07.27V43.26a6.34,6.34,0,0,0,5.79,6.4,6.2,6.2,0,0,0,6.61-6.18V23.83a2.86,2.86,0,0,1-1.07-.27A.76.76,0,0,0,47,23.56Z"/><rect class="cls-4" x="37.98" y="20.88" width="1.93" height="0.6"/><rect class="cls-4" x="37.98" y="22.47" width="0.97" height="0.6"/><rect class="cls-4" x="37.98" y="24.22" width="1.93" height="0.6"/><rect class="cls-4" x="37.98" y="25.81" width="0.97" height="0.6"/><rect class="cls-4" x="37.98" y="27.56" width="1.93" height="0.6"/><rect class="cls-4" x="37.98" y="29.15" width="0.97" height="0.6"/><rect class="cls-4" x="37.98" y="30.91" width="1.93" height="0.6"/><rect class="cls-4" x="37.98" y="32.49" width="0.97" height="0.6"/><rect class="cls-4" x="37.98" y="34.25" width="1.93" height="0.6"/><rect class="cls-4" x="37.98" y="35.84" width="0.97" height="0.6"/><rect class="cls-4" x="37.98" y="37.59" width="1.93" height="0.6"/><rect class="cls-4" x="37.98" y="39.18" width="0.97" height="0.6"/><rect class="cls-4" x="37.98" y="40.93" width="1.93" height="0.6"/><rect class="cls-4" x="37.98" y="42.52" width="0.97" height="0.6"/><path class="cls-2" d="M53.15,30.58V51.73a1.43,1.43,0,0,1-1.42,1.42H12.27a1.43,1.43,0,0,1-1.42-1.42V30.58a1.43,1.43,0,0,0-1.43-1.43h0A1.43,1.43,0,0,0,8,30.58v24A1.43,1.43,0,0,0,9.42,56H54.58A1.43,1.43,0,0,0,56,54.58v-24a1.43,1.43,0,0,0-1.42-1.43h0A1.43,1.43,0,0,0,53.15,30.58Z"/></svg>