<svg width="412" height="95" viewBox="0 0 412 95" fill="none" xmlns="http://www.w3.org/2000/svg">
<path d="M34.375 51.875H11.1875L11.0625 40.4375H31.3125C34.7292 40.4375 37.625 39.9375 40 38.9375C42.4167 37.8958 44.25 36.4167 45.5 34.5C46.75 32.5417 47.375 30.1875 47.375 27.4375C47.375 24.3958 46.7917 21.9167 45.625 20C44.4583 18.0833 42.6667 16.6875 40.25 15.8125C37.875 14.9375 34.8333 14.5 31.125 14.5H15.9375V93H0.25V2H31.125C36.125 2 40.5833 2.47917 44.5 3.4375C48.4583 4.39583 51.8125 5.89583 54.5625 7.9375C57.3542 9.9375 59.4583 12.4792 60.875 15.5625C62.3333 18.6458 63.0625 22.3125 63.0625 26.5625C63.0625 30.3125 62.1667 33.75 60.375 36.875C58.5833 39.9583 55.9375 42.4792 52.4375 44.4375C48.9375 46.3958 44.5833 47.5625 39.375 47.9375L34.375 51.875ZM33.6875 93H6.25L13.3125 80.5625H33.6875C37.2292 80.5625 40.1875 79.9792 42.5625 78.8125C44.9375 77.6042 46.7083 75.9583 47.875 73.875C49.0833 71.75 49.6875 69.2708 49.6875 66.4375C49.6875 63.4792 49.1667 60.9167 48.125 58.75C47.0833 56.5417 45.4375 54.8542 43.1875 53.6875C40.9375 52.4792 38 51.875 34.375 51.875H16.75L16.875 40.4375H39.8125L43.375 44.75C48.375 44.9167 52.4792 46.0208 55.6875 48.0625C58.9375 50.1042 61.3542 52.75 62.9375 56C64.5208 59.25 65.3125 62.75 65.3125 66.5C65.3125 72.2917 64.0417 77.1458 61.5 81.0625C59 84.9792 55.3958 87.9583 50.6875 90C45.9792 92 40.3125 93 33.6875 93ZM96.8125 2V93H81.125V2H96.8125ZM151.5 2L114.625 45.8125L93.625 68.0625L90.875 52.5L105.875 34L132.375 2H151.5ZM134.625 93L104.688 49.875L115.5 39.1875L153.25 93H134.625ZM213.75 63.375H229.375C228.875 69.3333 227.208 74.6458 224.375 79.3125C221.542 83.9375 217.562 87.5833 212.438 90.25C207.312 92.9167 201.083 94.25 193.75 94.25C188.125 94.25 183.062 93.25 178.562 91.25C174.062 89.2083 170.208 86.3333 167 82.625C163.792 78.875 161.333 74.3542 159.625 69.0625C157.958 63.7708 157.125 57.8542 157.125 51.3125V43.75C157.125 37.2083 157.979 31.2917 159.688 26C161.438 20.7083 163.938 16.1875 167.188 12.4375C170.438 8.64583 174.333 5.75 178.875 3.75C183.458 1.75 188.604 0.75 194.312 0.75C201.562 0.75 207.688 2.08333 212.688 4.75C217.688 7.41667 221.562 11.1042 224.312 15.8125C227.104 20.5208 228.812 25.9167 229.438 32H213.812C213.396 28.0833 212.479 24.7292 211.062 21.9375C209.688 19.1458 207.646 17.0208 204.938 15.5625C202.229 14.0625 198.688 13.3125 194.312 13.3125C190.729 13.3125 187.604 13.9792 184.938 15.3125C182.271 16.6458 180.042 18.6042 178.25 21.1875C176.458 23.7708 175.104 26.9583 174.188 30.75C173.312 34.5 172.875 38.7917 172.875 43.625V51.3125C172.875 55.8958 173.271 60.0625 174.062 63.8125C174.896 67.5208 176.146 70.7083 177.812 73.375C179.521 76.0417 181.688 78.1042 184.312 79.5625C186.938 81.0208 190.083 81.75 193.75 81.75C198.208 81.75 201.812 81.0417 204.562 79.625C207.354 78.2083 209.458 76.1458 210.875 73.4375C212.333 70.6875 213.292 67.3333 213.75 63.375ZM280.25 79.4375V47.1875C280.25 44.7708 279.812 42.6875 278.938 40.9375C278.062 39.1875 276.729 37.8333 274.938 36.875C273.188 35.9167 270.979 35.4375 268.312 35.4375C265.854 35.4375 263.729 35.8542 261.938 36.6875C260.146 37.5208 258.75 38.6458 257.75 40.0625C256.75 41.4792 256.25 43.0833 256.25 44.875H241.25C241.25 42.2083 241.896 39.625 243.188 37.125C244.479 34.625 246.354 32.3958 248.812 30.4375C251.271 28.4792 254.208 26.9375 257.625 25.8125C261.042 24.6875 264.875 24.125 269.125 24.125C274.208 24.125 278.708 24.9792 282.625 26.6875C286.583 28.3958 289.688 30.9792 291.938 34.4375C294.229 37.8542 295.375 42.1458 295.375 47.3125V77.375C295.375 80.4583 295.583 83.2292 296 85.6875C296.458 88.1042 297.104 90.2083 297.938 92V93H282.5C281.792 91.375 281.229 89.3125 280.812 86.8125C280.438 84.2708 280.25 81.8125 280.25 79.4375ZM282.438 51.875L282.562 61.1875H271.75C268.958 61.1875 266.5 61.4583 264.375 62C262.25 62.5 260.479 63.25 259.062 64.25C257.646 65.25 256.583 66.4583 255.875 67.875C255.167 69.2917 254.812 70.8958 254.812 72.6875C254.812 74.4792 255.229 76.125 256.062 77.625C256.896 79.0833 258.104 80.2292 259.688 81.0625C261.312 81.8958 263.271 82.3125 265.562 82.3125C268.646 82.3125 271.333 81.6875 273.625 80.4375C275.958 79.1458 277.792 77.5833 279.125 75.75C280.458 73.875 281.167 72.1042 281.25 70.4375L286.125 77.125C285.625 78.8333 284.771 80.6667 283.562 82.625C282.354 84.5833 280.771 86.4583 278.812 88.25C276.896 90 274.583 91.4375 271.875 92.5625C269.208 93.6875 266.125 94.25 262.625 94.25C258.208 94.25 254.271 93.375 250.812 91.625C247.354 89.8333 244.646 87.4375 242.688 84.4375C240.729 81.3958 239.75 77.9583 239.75 74.125C239.75 70.5417 240.417 67.375 241.75 64.625C243.125 61.8333 245.125 59.5 247.75 57.625C250.417 55.75 253.667 54.3333 257.5 53.375C261.333 52.375 265.708 51.875 270.625 51.875H282.438ZM326.25 38.25V93H311.188V25.375H325.562L326.25 38.25ZM346.938 24.9375L346.812 38.9375C345.896 38.7708 344.896 38.6458 343.812 38.5625C342.771 38.4792 341.729 38.4375 340.688 38.4375C338.104 38.4375 335.833 38.8125 333.875 39.5625C331.917 40.2708 330.271 41.3125 328.938 42.6875C327.646 44.0208 326.646 45.6458 325.938 47.5625C325.229 49.4792 324.812 51.625 324.688 54L321.25 54.25C321.25 50 321.667 46.0625 322.5 42.4375C323.333 38.8125 324.583 35.625 326.25 32.875C327.958 30.125 330.083 27.9792 332.625 26.4375C335.208 24.8958 338.188 24.125 341.562 24.125C342.479 24.125 343.458 24.2083 344.5 24.375C345.583 24.5417 346.396 24.7292 346.938 24.9375ZM384.938 94.25C379.938 94.25 375.417 93.4375 371.375 91.8125C367.375 90.1458 363.958 87.8333 361.125 84.875C358.333 81.9167 356.188 78.4375 354.688 74.4375C353.188 70.4375 352.438 66.125 352.438 61.5V59C352.438 53.7083 353.208 48.9167 354.75 44.625C356.292 40.3333 358.438 36.6667 361.188 33.625C363.938 30.5417 367.188 28.1875 370.938 26.5625C374.688 24.9375 378.75 24.125 383.125 24.125C387.958 24.125 392.188 24.9375 395.812 26.5625C399.438 28.1875 402.438 30.4792 404.812 33.4375C407.229 36.3542 409.021 39.8333 410.188 43.875C411.396 47.9167 412 52.375 412 57.25V63.6875H359.75V52.875H397.125V51.6875C397.042 48.9792 396.5 46.4375 395.5 44.0625C394.542 41.6875 393.062 39.7708 391.062 38.3125C389.062 36.8542 386.396 36.125 383.062 36.125C380.562 36.125 378.333 36.6667 376.375 37.75C374.458 38.7917 372.854 40.3125 371.562 42.3125C370.271 44.3125 369.271 46.7292 368.562 49.5625C367.896 52.3542 367.562 55.5 367.562 59V61.5C367.562 64.4583 367.958 67.2083 368.75 69.75C369.583 72.25 370.792 74.4375 372.375 76.3125C373.958 78.1875 375.875 79.6667 378.125 80.75C380.375 81.7917 382.938 82.3125 385.812 82.3125C389.438 82.3125 392.667 81.5833 395.5 80.125C398.333 78.6667 400.792 76.6042 402.875 73.9375L410.812 81.625C409.354 83.75 407.458 85.7917 405.125 87.75C402.792 89.6667 399.938 91.2292 396.562 92.4375C393.229 93.6458 389.354 94.25 384.938 94.25Z" fill="#002C77"/>
</svg>
