<svg xmlns="http://www.w3.org/2000/svg" xml:space="preserve" width="2048" height="2048" style="shape-rendering:geometricPrecision;text-rendering:geometricPrecision;image-rendering:optimizeQuality;fill-rule:evenodd;clip-rule:evenodd"><defs><clipPath id="id0"><path d="M1024 0c565.541 0 1024 458.459 1024 1024 0 565.541-458.459 1024-1024 1024C458.459 2048 0 1589.541 0 1024 0 458.459 458.459 0 1024 0z"/></clipPath><style>.fil1{fill:#ec7330}.fil7{fill:#f9a825}.fil5,.fil6{fill:#616161;fill-rule:nonzero}.fil5{fill:#757575}</style></defs><g id="Layer_x0020_1"><path d="M1024 0c565.541 0 1024 458.459 1024 1024 0 565.541-458.459 1024-1024 1024C458.459 2048 0 1589.541 0 1024 0 458.459 458.459 0 1024 0z" style="fill:#00c6b4"/><g style="clip-path:url(#id0)"><g id="_308711560"><path id="_3039310881" class="fil1" d="M1306.9 875.701 2442.78 2011.58l2.01 6.18 1.84 6.23 1.68 6.26 1.51 6.31 1.35 6.33 1.18 6.37 1.02 6.4.84 6.42.68 6.44.52 6.46.34 6.47.18 6.47.01 6.49-.16 6.49-.33 6.49-.51 6.48-.67 6.47-.84 6.47-1.02 6.45-1.19 6.42-1.36 6.41-1.53 6.38-1.71 6.36-1.88 6.32-2.06 6.28-2.23 6.24-2.41 6.2-2.58 6.15-2.77 6.11-2.93 6.04-3.12 5.99-3.29 5.93-1135.88-1135.88 3.29-5.93 3.12-5.99 2.93-6.05 2.76-6.1 2.59-6.15 2.41-6.2 2.23-6.24 2.05-6.29 1.89-6.32 1.71-6.35 1.53-6.38 1.36-6.41 1.19-6.427 1.02-6.447.84-6.465.67-6.474.51-6.482.33-6.488.16-6.488-.01-6.487-.18-6.479-.34-6.47-.52-6.457-.68-6.44-.85-6.42-1.01-6.396-1.18-6.368-1.35-6.339-1.51-6.304-1.68-6.264-1.84-6.225z"/><path id="_303930920" class="fil1" d="m1572.91 1339.66 1135.88 1135.88-1.73 2.14-1.81 2.03-1.9 1.91-1.97 1.8-2.05 1.69-2.11 1.57-2.18 1.46-2.24 1.34-2.29 1.23-2.34 1.11-2.38.99-2.43.87-2.46.75-2.49.64-2.51.51-2.54.4-2.55.27-2.56.15-2.57.03-2.58-.1-2.56-.22-2.57-.34-2.55-.47-2.53-.6-2.51-.72-2.48-.85-2.46-.97-2.41-1.11-2.38-1.23-2.33-1.37-2.28-1.49-2.23-1.63-1135.88-1135.88 2.23 1.63 2.28 1.49 2.33 1.36 2.38 1.24 2.41 1.1 2.46.98 2.48.85 2.51.72 2.53.6 2.55.47 2.56.34 2.57.22 2.58.09 2.57-.02 2.56-.15 2.55-.28 2.54-.39 2.51-.51 2.49-.64 2.46-.75 2.42-.87 2.39-1 2.34-1.11 2.29-1.22 2.24-1.34 2.17-1.46 2.12-1.57 2.05-1.69 1.97-1.8 1.9-1.92 1.81-2.03z"/><path id="_303930800" class="fil1" d="M1296.72 1169.64 2432.6 2305.52l-.62-.48L1296.1 1169.16z"/><path id="_303930848" class="fil1" d="m1285.2 1160.79 1135.89 1135.89v416.62L1285.2 1577.42z"/><path id="_303931232" class="fil1" d="m1296.1 1169.16 1135.88 1135.88-.08-.06-.09-.06-.08-.07-.08-.06-.09-.06-.08-.07-.08-.06-.08-.07-1135.89-1135.88.09.07.08.06.08.06.09.07.08.06.08.07.09.06z"/><path id="_303931808" class="fil1" d="m1295.43 1168.65 1135.89 1135.88-10.23-7.85L1285.2 1160.79z"/><path id="_303931928" class="fil1" d="m1497.93 1349.45 1135.88 1135.88-180.32-138.48-1135.88-1135.88z"/><path id="_303931472" class="fil1" d="m1317.61 1210.97 1135.88 1135.88-1.24-.98-1.2-1.01-1.16-1.03-1.13-1.07-1.09-1.08-1135.88-1135.89 1.09 1.09 1.13 1.07 1.16 1.03 1.2 1.01z"/><path id="_303932192" class="fil1" d="M1285.2 1577.42 2421.09 2713.3h-821.21L463.999 1577.42z"/><path id="_303931832" class="fil1" d="M1285.2 470.579 2421.09 1606.46v358.07L1285.2 828.644z"/><path id="_303932144" class="fil1" d="M1285.2 828.644 2421.09 1964.53l.83 1.4.82 1.41.81 1.42.8 1.42.8 1.43.78 1.43.77 1.43.76 1.44.76 1.44.74 1.45.73 1.45.72 1.45.72 1.46.7 1.46.69 1.47.69 1.47.67 1.48.66 1.47.66 1.49.64 1.48.64 1.49.62 1.5.61 1.49.61 1.5.59 1.51.58 1.5.58 1.51.56 1.52.55 1.51.55 1.52.53 1.53.52 1.52L1306.9 875.701l-.52-1.526-.53-1.524-.55-1.52-.55-1.517-.56-1.513-.58-1.51-.58-1.507-.6-1.504-.6-1.5-.61-1.496-.63-1.494-.63-1.49-.64-1.486-.66-1.482-.66-1.479-.67-1.474-.69-1.471-.69-1.467-.7-1.462-.72-1.46-.72-1.454-.73-1.452-.75-1.445-.75-1.444-.76-1.437-.77-1.434-.79-1.429-.79-1.426-.8-1.419-.81-1.417-.82-1.411z"/><path id="_303932048" class="fil1" d="m1569.17 1270.08 1135.88 1135.88 1.8 1.98 1.69 2.05 1.58 2.12 1.46 2.18 1.34 2.24 1.23 2.29 1.11 2.34.99 2.39.88 2.43.75 2.46.64 2.49.51 2.52.4 2.53.27 2.56.15 2.56.03 2.57-.1 2.58-.22 2.57-.34 2.56-.47 2.55-.6 2.53-.72 2.51-.85 2.49-.97 2.45-1.11 2.42-1.23 2.37-1.36 2.33-1.5 2.28-1.62 2.23-1135.88-1135.88 1.62-2.23 1.5-2.28 1.36-2.33 1.23-2.38 1.1-2.41.98-2.46.85-2.48.72-2.51.6-2.53.47-2.55.34-2.57.22-2.57.1-2.57-.03-2.57-.15-2.56-.27-2.56-.4-2.54-.51-2.51-.64-2.49-.75-2.47-.88-2.42-.99-2.39-1.11-2.34-1.23-2.29-1.34-2.24-1.46-2.19-1.58-2.11-1.69-2.05z"/><path id="_308711728" class="fil1" d="m1382.77 1126.13 180.301 138.507c23.467 17.974 27.847 51.598 9.836 75.021-17.944 23.413-51.54 27.827-74.979 9.796l-180.325-138.482c-13.377-10.288-20.55-25.667-20.884-41.33l-.62-.477a34.436 34.436 0 0 1-.667-.512l-10.23-7.857v416.628H463.996V470.584h821.206V828.65a247.157 247.157 0 0 1 21.7 47.056c22.264 65.659 16.638 139.602-19.436 202.51l48.57 37.303c.375.277.746.562 1.111.853l.305.235c15.224-3.719 31.936-.752 45.318 9.526z"/></g></g><path d="M1024 0c565.541 0 1024 458.459 1024 1024 0 565.541-458.459 1024-1024 1024C458.459 2048 0 1589.541 0 1024 0 458.459 458.459 0 1024 0z" style="fill:none"/><path style="fill:#5c6bc0" d="M464 470.579h821.2V1577.42H464z"/><path style="fill:#eee" d="M501.118 507.698V1540.3h746.972V507.698z"/><path class="fil5" d="M617.049 643.805h515.111v18.56H617.049zM557.106 706.625H1192.1v18.559H557.106zM557.106 769.442H1192.1v18.559H557.106zM557.106 832.261H1192.1v18.56H557.106zM557.106 895.078H1192.1v18.56H557.106zM557.106 957.896H1192.1v18.56H557.106zM557.106 1020.71H1192.1v18.56H557.106zM557.106 1083.53H1192.1v18.56H557.106zM557.106 1146.35H1192.1v18.56H557.106zM557.106 1209.17H1192.1v18.56H557.106zM557.106 1271.99H1192.1v18.56H557.106zM557.106 1334.8H1192.1v18.56H557.106zM557.106 1397.62H1192.1v18.56H557.106zM557.106 1460.44H1192.1V1479H557.106z"/><path class="fil6" d="M858.042 895.078H1192.1v18.56H858.042zM828.516 957.896H1192.1v18.56H828.516zM871.418 1020.71H1192.1v18.56H871.418zM904.922 1083.53H1192.1v18.56H904.922zM890.476 832.261H1192.1v18.56H890.476z"/><path class="fil7" d="m1458.95 1209.92-40.75 53.04-190.9-146.65 40.71-53.04z"/><path d="M1563.07 1264.63c23.467 17.974 27.847 51.598 9.836 75.021-17.943 23.413-51.54 27.828-74.977 9.796l-180.325-138.482c-23.404-17.997-27.818-51.575-9.853-74.997 18.002-23.431 51.605-27.826 75.019-9.844l180.3 138.506z" style="fill:#6d4c41"/><path d="M838.44 1035.06c15.166 44.71 43.265 85.585 83.507 116.499 108.364 83.235 263.704 62.888 346.935-45.468 52.302-68.096 63.674-154.74 38.022-230.388l-43.692 14.863c20.863 61.55 11.613 132.045-30.93 187.45-67.678 88.104-194.06 104.674-282.235 36.94-32.72-25.149-55.584-58.385-67.915-94.758l-43.691 14.862zm38.01-230.349c-52.312 68.072-63.674 154.716-38.01 230.349l43.689-14.862c-20.882-61.534-11.647-132.038 30.902-187.412 67.697-88.129 194.1-104.738 282.26-37.038 32.743 25.161 55.6 58.427 67.921 94.818l43.692-14.863c-15.184-44.73-43.284-85.609-83.554-116.555-108.331-83.209-263.64-62.827-346.901 45.562z" style="fill:#5d4037"/><path class="fil7" d="M1347.86 1131.65c-5.935-17.45-25.002-26.842-42.451-20.907-17.452 5.935-26.835 25.01-20.9 42.459 5.936 17.45 25.003 26.844 42.455 20.908 17.45-5.937 26.832-25.01 20.896-42.46z"/></g></svg>