<svg id="Layer_1" data-name="Layer 1" xmlns="http://www.w3.org/2000/svg" viewBox="0 0 64 64"><defs><style>.cls-1{fill:#dfe8f4;}.cls-2{fill:#ccd8e5;}.cls-3{fill:#0795ff;}.cls-4{fill:#fff;}</style></defs><title>medical, medicine, healthcare, health, liquid, wash, hands</title><path class="cls-1" d="M8,41.56l4.77-.92a26.63,26.63,0,0,0,5-1.51h0a11.93,11.93,0,0,1,8-.36l9.14,2.81a1.9,1.9,0,0,1,1.25,2.51h0a1,1,0,0,1-1,.62l-5.92-.13L35,45.86a27.13,27.13,0,0,0,10.77.22l2.48-.45a1.71,1.71,0,0,1,2,1.66h0a.83.83,0,0,1-.53.77l-3,1.2a27.1,27.1,0,0,1-13.34,1.67l-8.57-1.08c-2.69-.52-5.49.84-7.94,2L8,56.25Z"/><polygon class="cls-2" points="10.38 41.11 8.03 41.56 8 56.25 10.38 55.09 10.38 41.11"/><path class="cls-3" d="M46.52,11.8,45.19,9c-.62-1.29-1.76-1.29-2.14-.49L41.48,11.8a49.41,49.41,0,0,1-6.71,10.06,12,12,0,0,0-2.77,8A12.49,12.49,0,0,0,43.53,41.5,12,12,0,0,0,52.8,21.37,38.35,38.35,0,0,1,46.52,11.8Z"/><path class="cls-4" d="M39,24.86a1.51,1.51,0,0,1-1-.35,1.49,1.49,0,0,1-.19-2.11A16.71,16.71,0,0,0,40.13,19a1.5,1.5,0,1,1,2.7,1.3,19.38,19.38,0,0,1-2.68,4A1.5,1.5,0,0,1,39,24.86Z"/><path class="cls-4" d="M36.42,28.83a1.49,1.49,0,0,1-1.5-1.5,1.52,1.52,0,0,1,.44-1.06,1.55,1.55,0,0,1,2.12,0,1.51,1.51,0,0,1,0,2.13A1.55,1.55,0,0,1,36.42,28.83Z"/></svg>